<?xml version="1.0" encoding="UTF-8"?><svg id="Layer_1" xmlns="http://www.w3.org/2000/svg" viewBox="0 0 48 48"><defs><style>.cls-1{stroke-width:0px;}</style></defs><path class="cls-1" d="M26.72,28.71c0,.49-.02.98,0,1.46.03.57-.06,1.13-.32,1.61-.44.84-.92,1.67-1.46,2.46-.46.66-.84.67-1.53.27-.66-.38-.97-.95-1.1-1.66-.32-1.77-.53-3.55-.41-5.36,0-.13,0-.27,0-.4-.03-.66-.37-1.05-1.03-1.04-.77.01-1.54.11-2.31.18-.68.06-1.36.15-2.05.19-.86.06-1.72.12-2.59.12-.73,0-1.46-.07-2.19-.13-.46-.04-.55-.23-.3-.61.18-.28.4-.53.62-.78.44-.54.43-.78-.06-1.24-.34-.33-.34-.31.03-.6,1.15-.9,2.46-1.28,3.9-1.28,1.67,0,3.32-.14,4.96-.41.17-.03.34-.09.51-.14.65-.22.93-.65.92-1.36-.02-.97-.29-1.88-.56-2.79-.21-.7-.46-1.39-.68-2.09-.4-1.28.03-1.86,1.36-1.89,1.18-.03,2.27.36,3.38.65.28.07.56.16.82.26.38.15.46.4.23.72-.13.18-.31.32-.46.48-.3.31-.41.67-.31,1.1.15.63.36,1.21.86,1.69.62.59.53.98-.22,1.4-.02.01-.04.02-.06.03-.23.15-.66.21-.58.54.07.28.35.58.61.72.34.17.77.28,1.15.26,2.13-.09,4.18.42,6.25.77.52.09,1.05.18,1.56.34,1.01.32,1.26.94.81,1.91-.66,1.44-1.59,1.92-3.16,1.64-.13-.02-.26-.05-.4-.05-1.71,0-3.42-.03-5.13,0-.75,0-1.06.36-1.11,1.13,0,.07,0,.13,0,.2,0,.58,0,1.15,0,1.73,0,0,.01,0,.02,0Z"/></svg>