<svg id="Layer_1" xmlns="http://www.w3.org/2000/svg" viewBox="0 0 48 48"><path className="cls-1" d="M11.44,23.2c7.42-3.69,14.84-7.39,22.26-11.08.32.6.63,1.19.95,1.79-6.17,3.3-12.33,6.61-19.04,10.2,6.85,3.56,12.98,6.76,19.11,9.95-.33.61-.67,1.22-1,1.83-7.51-3.74-15.03-7.47-22.54-11.21.09-.49.17-.99.26-1.48Z"/><path className="cls-1" d="M22.45,22.76c4.73-2.51,9.45-5.17,13.3-7.14.31.53.62,1.07.93,1.6-2.75,1.68-5.49,3.36-8.74,5.35,3.49.31,6.18.56,8.87.8l-.07,1.45c-2.47.19-4.94.39-8.58.68,2.36,1.54,4.26,2.78,6.03,3.93.13.07.25.15.38.22,0,0,0,.01-.01.02.66.43,1.31.85,1.95,1.27-.31.49-.61.97-.92,1.46-4.67-2.74-10.67-4.46-16.49-7.87,1.17-.61,2.27-1.19,3.35-1.75Z"/></svg>