<?xml version="1.0" encoding="UTF-8"?><svg id="Layer_1" xmlns="http://www.w3.org/2000/svg" viewBox="0 0 48 48"><defs><style>.cls-1{stroke-width:0px;}</style></defs><path class="cls-1" d="M16.44,24.11c6.9-3.7,13.25-7.1,19.6-10.5l-.98-1.84c-7.64,3.8-15.27,7.6-22.91,11.41-.09.51-.18,1.01-.27,1.52,7.73,3.84,15.46,7.69,23.2,11.53.34-.63.69-1.26,1.03-1.89-6.31-3.28-12.62-6.57-19.67-10.24Z"/><path class="cls-1" d="M34.85,16.78c-4.56,2.38-9.11,4.76-14.81,7.75,5.79,2.65,10.41,4.76,15.02,6.87.3-.53.61-1.06.91-1.59-3.05-1.75-6.1-3.49-9.58-5.48,3.22-2.15,6.32-4.23,9.42-6.31-.32-.41-.64-.82-.96-1.23Z"/></svg>