<?xml version="1.0" encoding="UTF-8"?><svg id="Layer_1" xmlns="http://www.w3.org/2000/svg" viewBox="0 0 48 48"><defs><style>.cls-1{stroke-width:0px;}</style></defs><path class="cls-1" d="M27.26,14.26c.36.62.72,1.24,1.08,1.86-3.19,1.95-6.38,3.91-10.15,6.22,1.01.09,1.96.18,2.87.26,6.04-3.09,11.15-5.72,16.26-8.34.36.62.72,1.24,1.08,1.86-3.19,1.95-6.38,3.91-10.15,6.22,4.05.37,7.18.65,10.31.93-.03.56-.05,1.12-.08,1.68-2.87.23-5.74.45-9.98.79,3.97,2.59,6.83,4.45,9.7,6.32-.36.56-.71,1.13-1.07,1.69-4.49-2.64-8.99-5.28-14.23-8.36-1.33.1-2.78.22-4.45.35,3.97,2.59,6.83,4.45,9.7,6.32-.36.56-.71,1.13-1.07,1.69-5.43-3.19-10.86-6.38-17.62-10.35,6.73-3.45,12.28-6.29,17.82-9.13Z"/></svg>