<?xml version="1.0" encoding="UTF-8"?><svg id="Layer_1" xmlns="http://www.w3.org/2000/svg" viewBox="0 0 48 48"><defs><style>.cls-1{stroke-width:0px;}</style></defs><path class="cls-1" d="M36.7,14.18c.1,6.9-2.36,13.2-4.63,19.46-.94,2.61-3.02,4.86-4.8,7.09-.94,1.18-2.51,1.43-3.99.84-1.93-.76-3.78-1.67-4.74-3.71-.74-1.58-1.69-3.09-2.22-4.73-1.48-4.59-3.15-9.1-2.92-14.12.1-2.18-.92-4.4-1.44-6.6-.09-.4-.26-.78-.37-1.18-.61-2.17-.28-3.39,1.06-4.03,1.34-.64,3.06.18,3.91,2.08.62,1.4,1.01,2.91,1.43,4.39.76,2.67,1.02,2.9,3.88,2.88,1.34,0,2.69-.02,4.01-.19,2.21-.3,2.75-.94,3.14-3.14.26-1.51.47-3.06.93-4.51.47-1.47,1.63-2.35,3.21-2.55,1.7-.21,2.87.5,3.13,2.21.29,1.91.29,3.87.42,5.81ZM31.3,12.12c.05.75-.03,1.21.13,1.56.24.52.59,1.26,1.01,1.36.41.09,1.18-.4,1.44-.84.88-1.51.95-3.14.14-4.71-.19-.36-.76-.66-1.19-.72-.27-.04-.77.39-.87.7-.32.96-.49,1.97-.65,2.65ZM16.92,14.97c-.49-1.26-.91-2.52-1.49-3.69-.17-.34-.8-.45-1.22-.66-.09.38-.31.78-.24,1.12.25,1.21.53,2.41.94,3.57.13.38.69.62,1.05.92.28-.37.56-.73.96-1.26Z"/></svg>