<svg id="Layer_1" xmlns="http://www.w3.org/2000/svg" viewBox="0 0 48 48"><path className="cls-1" d="M37.69,35.35c-18.67,24.31-26.35-1.72-28.53-19.75,2.33-8.22,3.69,8.7,4.61,10.44,3.08,2.28-.55-18.42,2.72-20.15,4.23-.61.11,15.01,3.25,16.44,2.4-1.84-.93-20.81,3.58-19.49,1.38,1.43.38,4.84.46,6.65.15,2.38.22,7.18.17,9.57,1.45,6.14,2.85-2,2.69-4.09-.06-1.51.21-4.53.51-6.01-.19-1.99-.55-4.76,2.21-4.8,1.33,6.73-.26,15.31,2.07,22.19,3.73,8.15-9.62,15.54-13.57,7.17-2.28-12.1,16.66-8.81,6.64-.63-6.22,1.48-2.28-6.34-.7-3.12-.25.62-1.54,1.21-.72,1.81,4.67-1.39,1.4-6.54-2.13-3.34-2.18,2.1-1.4,5.39,1.12,6.81,4.22,1.07,8.92-3.29,7.35-7.64-2.95-14.28-25.72,6.77-7.69,13.17,6.07,1.36,10.41-4.15,13.86-8.29,2.23-2.16,3.07-6.3,5.26-8.26,4.01,1.6-1.9,8.89-3.16,11.33Z"/></svg>