<?xml version="1.0" encoding="UTF-8"?><svg id="Layer_1" xmlns="http://www.w3.org/2000/svg" viewBox="0 0 48 48"><defs><style>.cls-1{stroke-width:0px;}</style></defs><path class="cls-1" d="M25.09,4.9c2.84.27,5.57.66,7.96,2.29,1.39.95,2.95,1.69,4.2,2.8,1.2,1.07,2.09,2.49,3.15,3.73.27.32.7.51,1.01.8.38.35.94.69,1.05,1.13.29,1.15.51,2.36.52,3.54,0,1.52-.16,3.04-.35,4.55-.22,1.74-.44,3.49-.85,5.19-.32,1.31-.65,2.78-1.47,3.77-2.08,2.51-4.17,5.14-6.73,7.09-3.77,2.87-8.31,3.51-13.04,3.25-2.43-.14-4.72-.44-6.74-1.81-.78-.53-1.4-1.29-2.08-1.96-.75-.74-1.4-1.48-2.69-1.21-1.16.24-1.61-.71-2.1-1.64-1.38-2.66-1.24-5.52-1.63-8.35-.35-2.51.04-4.81.16-7.21.05-1.01-.57-2.09-.4-3.06.2-1.09,1-2.06,1.44-3.13,1.22-3.01,3.62-4.3,6.64-5.01,1.38-.32,2.61-1.29,3.89-1.99,2.55-1.4,5.06-2.89,8.07-2.77ZM6.68,30c0,.58-.05,1.17.01,1.75.06.58.21,1.15.36,1.71.03.11.28.28.35.24,1.36-.67,2.47-.42,2.88,1.07.4,1.49,1,2.64,2.26,3.54.66.47,1.08,1.28,1.75,1.74,1.79,1.23,3.81,1.61,6,1.73,3.5.18,6.83-.21,10.08-1.56,3.72-1.54,5.87-4.76,8.41-7.58.03-.03-.07-.27-.15-.3-1.39-.5-2.02-1.68-1.52-2.87.39-.94,1.65-1.14,2.93-.52.11.05.51-.18.53-.31.22-1.47.21-3.01.63-4.42.6-2.01.88-3.96.24-5.98-.08-.24-.44-.53-.69-.55-1.3-.12-1.84-1.08-1.21-2.23.07-.13.17-.35.12-.44-1.1-1.79-1.82-3.93-4.26-4.46-.45-.1-.93-.36-1.24-.7-1.83-2.01-4.16-2.94-6.77-3.48-3.62-.75-6.65.56-9.63,2.34-1.47.88-3.01,1.84-4.65,2.2-2.75.61-4.96,2.27-5.69,5-.08.29.16.64.18.97.05.73.36,1.85.02,2.12-.97.78-.88,1.75-.99,2.72-.17,1.45-.46,2.9-.41,4.35.04,1.29.55,3.89.46,3.9Z"/><path class="cls-1" d="M26.56,23.17c-.01-3.05,2.24-5.13,4.52-4.68,1.18.23,1.84,1.08,1.3,2.12-.68,1.34-1.58,2.62-2.62,3.69-.4.41-1.56.38-2.2.13-.54-.21-.83-1.04-1-1.27Z"/><path class="cls-1" d="M24.35,36.52c.63.15,1.47.2,2.16.56.49.26,1.19,1.14,1.07,1.38-.4.8-1.1,1.99-1.74,2.03-1.36.09-2.79-.38-4.13-.8-.3-.09-.66-1.1-.49-1.35.44-.64,1.11-1.15,1.77-1.59.3-.2.79-.14,1.37-.23Z"/><path class="cls-1" d="M16.7,14.88c-1.05-.06-2.1-.2-2.43-1.4-.32-1.16.32-1.88,1.3-2.43,1.14-.63,2.31-1.5,3.51-.44.52.46.86,1.48.77,2.17-.18,1.31-1.36,1.79-2.55,2.05-.2.04-.41.03-.6.04Z"/><path class="cls-1" d="M29.5,11.88c-1.56,0-2.78-.99-2.77-2.23.01-1.13,1.27-2.13,2.7-2.13,1.48,0,2.52.95,2.51,2.29,0,1.34-.87,2.07-2.44,2.06Z"/><path class="cls-1" d="M14.06,25.63c0,1.51-.89,2.51-2.27,2.48-1.25-.02-1.75-.81-1.78-1.94-.03-1.32,1.08-2.65,2.18-2.66,1.2-.01,1.87.75,1.88,2.12Z"/><path class="cls-1" d="M25.05,27.19c-.08.83-.6,1.41-1.6,1.45-1.11.05-2.59-1.29-2.56-2.3.04-1.23.95-1.48,1.91-1.53,1.21-.06,2.24,1,2.24,2.37Z"/></svg>