<?xml version="1.0" encoding="UTF-8"?><svg id="Layer_1" xmlns="http://www.w3.org/2000/svg" viewBox="0 0 48 48"><defs><style>.cls-1{stroke-width:0px;}</style></defs><path class="cls-1" d="M25.45,26.29c-1.55,0-3.11.02-4.66,0-1.36-.02-2.71.08-4.04.31-1.13.2-2.2.05-3.28-.24-.94-.25-1.89-.47-2.83-.73-.23-.06-.46-.18-.65-.32-.69-.5-.68-.8-.02-1.31.18-.14.36-.27.53-.4.58-.46,1.24-.65,1.98-.65,3.04,0,6.08.02,9.12-.03,1.28-.02,2.56-.2,3.84-.33,1.28-.13,2.55-.28,3.83-.44,1.23-.15,2.46-.33,3.69-.47,1.03-.12,2.06-.31,3.11-.07.87.2,1.58.59,1.93,1.46.19.49.42.98.52,1.5.12.59-.08.89-.66,1.05-.7.19-1.43.33-2.15.41-.95.1-1.9.14-2.85.16-2.46.07-4.92.11-7.38.16,0-.02,0-.03,0-.05Z"/><path class="cls-1" d="M28.14,16.11c.04,1.48-.74,2.33-1.77,2.99-.92.59-1.95.98-3.05,1.03-.93.04-1.85-.1-2.66-.64-.63-.42-.96-1.02-1.1-1.74-.24-1.26-.17-2.48.44-3.62.5-.93,1.18-1.7,2.18-2.16,1.54-.71,2.95-.39,4.24.57,1.22.91,1.71,2.22,1.72,3.57Z"/><path class="cls-1" d="M24.73,29.58c1.92.03,3.29.99,4.13,2.65.85,1.68-.12,3.72-1.79,4.1-.15.03-.31.08-.46.07-1.12-.11-2.27-.03-3.35-.4-1.15-.39-2.08-1.02-2.29-2.33-.15-.92.06-1.78.62-2.51.78-1.02,1.8-1.64,3.15-1.58Z"/></svg>