<svg id="Layer_1" xmlns="http://www.w3.org/2000/svg" viewBox="0 0 48 48"><path class="cls-1" d="M32.25,28.62h2.3c5.63,0,4.83-2.95,4.83-5.36s-1.79-2.32-1.79-2.32h-13.59s-13.59,0-13.59,0c0,0-1.79-.09-1.79,2.32s-.8,5.36,4.83,5.36h2.09l.6,6.79c-6.72-.13-6.97-.72-6.97-.72,0,0-6.35-3.04-6.35-10.55s8.04-8.85,8.04-8.85c0,0,13.14,0,13.14,0h13.14s8.04,1.34,8.04,8.85c0,7.51-6.35,10.55-6.35,10.55,0,0-.42.64-7.13.77l.54-6.85"/><path class="cls-2" d="M32.04,20.53s.48,7.81-.66,13.79c-1.22,6.41-4.98,8.57-7.39,8.57-2.41,0-6.17-2.16-7.39-8.57-1.14-5.98-.66-13.79-.66-13.79h16.09Z"/><line class="cls-2" x1="24" y1="20.53" x2="24" y2="35.75"/></svg>