<svg id="Layer_1" xmlns="http://www.w3.org/2000/svg" viewBox="0 0 48 48"><path class="cls-1" d="M42.36,24.37c-2.06,2.18-2.97,6.23-5.21,8.39l-.08.1c-.6.82-1.83.09-1.44-.81,1.91-4.41,3.42-9.17,3.18-15.98-.03-.82-.21-1.62-.54-2.37-2.17-4.88-3.47,10.75-4.37,12.46-3.26,2.41.12-21.29-3.33-23.12-.26-.04-.49-.01-.69.07-2.17.47-2.48,15.54-3.09,17.09-.84-5.47.98-19.29-2.8-18.61-3.78-.68-1.96,13.14-2.8,18.61-.61-1.55-.92-16.63-3.09-17.09-.2-.08-.43-.11-.69-.07-3.45,1.83-.07,25.53-3.33,23.12-.95-1.79-2.33-18.83-4.68-11.64-.12.38-.21.77-.26,1.16-.82,6.24.99,11.48,3.12,16.24.39.88-.78,1.61-1.39.87-.01-.01-.02-.03-.04-.04-2.23-2.16-3.14-6.21-5.2-8.39-.22-.23-.57-.27-.83-.1-3.25,2.08,2.54,9.25,3.81,11.73,6.22,8.1,11.28,10.91,15.37,10.37,4.09.54,9.16-2.27,15.37-10.37,1.28-2.47,7.06-9.65,3.81-11.73-.26-.17-.61-.13-.83.1ZM22.51,41.51c-5.73-2.03-7.56-5.46-7.23-8.86,1.55,3.23,5.3,5.47,8.72,5.3,3.42.17,7.17-2.07,8.72-5.3.33,3.4-1.5,6.83-7.23,8.86-.51.11-1,.18-1.49.21-.48-.03-.98-.09-1.49-.21ZM24,22.65c2.39.58,4.88,2.42,6.6,4.78.01.06.03.11.04.17.7,1.94.22,3.88-.9,5.39.23-2.36-.37-4.09-1.38-5.28-.59-1.38-2.41-2.14-4.35-2.05-1.94-.1-3.76.66-4.35,2.05-1.01,1.18-1.61,2.91-1.38,5.28-1.12-1.51-1.6-3.45-.9-5.39.01-.06.03-.11.04-.17,1.71-2.36,4.21-4.2,6.6-4.78ZM25.7,28c.75.69.97,1.85.23,2.8-.38-.97-1.93-1.45-1.93-1.45,0,0-1.55.48-1.93,1.45-.74-.95-.52-2.11.23-2.8.6-.39,1.17-.58,1.7-.6.52.02,1.1.21,1.7.6ZM24,31.99s-.1-.03-.14-.05c-.38-.33-.17-.67.14-1,.31.34.53.67.14,1-.05.02-.1.03-.14.05ZM22.87,35.67c-1.73-.98-2.68-2.78-2.51-4.54.5.7,1.22,1.46,2.2,2.26.25.06.48.1.7.14.22.04.46.07.74.06.28,0,.52-.02.74-.06.22-.03.45-.08.7-.14.98-.8,1.7-1.56,2.2-2.26.17,1.75-.78,3.56-2.51,4.54-.37.1-.75.15-1.13.17-.38-.02-.76-.07-1.13-.17Z"/></svg>