<?xml version="1.0" encoding="UTF-8"?><svg id="Layer_1" xmlns="http://www.w3.org/2000/svg" viewBox="0 0 48 48"><defs><style>.cls-1{stroke-width:0px;}</style></defs><path class="cls-1" d="M16.41,11.93c.89.04,1.79.42,2.44,1.32.66.92,1.33,1.83,2,2.74.48.65,1.03,1.22,1.79,1.55,1.02.44,1.68.24,2.25-.72.25-.42.47-.85.71-1.28,1.09-1.99,3.17-2.75,5.24-2.51.52.06,1.04.23,1.54.41.57.2,1,.58,1.23,1.14.22.53.05.78-.51.85-.32.04-.67.11-.93.27-.61.39-1.2.83-1.76,1.29-1.31,1.09-2.23,2.51-3.22,3.87-.39.54-.35.81.14,1.26.45.4.94.75,1.36,1.17.57.58,1.09,1.22,1.64,1.83.46.51.92,1.01,1.4,1.51.41.43.86.82,1.27,1.26.27.28.36.3.62,0,.1-.12.17-.26.26-.39.31-.51.56-.63,1.02-.51.48.13.8.52.78,1.03-.01.26-.08.53-.15.78-.35,1.21-.72,2.42-1.06,3.64-.31,1.11-.85,2.09-1.57,2.98-.08.1-.18.2-.27.29-.48.45-.87.47-1.32,0-.49-.51-.93-1.08-1.43-1.57-1.11-1.08-2.24-2.14-3.4-3.18-1.07-.96-2.18-1.88-3.28-2.82-.08-.07-.16-.15-.25-.22-.67-.53-.75-.49-1.16.07-.37.5-.85.91-1.21,1.41-.42.59-.79,1.23-1.15,1.86-.57,1.01-1.36,1.8-2.34,2.4-.58.36-1.18.71-1.77,1.06-.82.48-1.18.42-1.65-.11-.22-.24-.52-.42-.76-.65-.65-.63-.73-1.18-.22-1.95.35-.53.75-1.04,1.16-1.54,1.49-1.78,3.02-3.54,4.5-5.34.38-.46.65-1,.94-1.52.2-.37.16-.77.04-1.17-.19-.64-.58-1.15-1.04-1.6-.84-.83-1.71-1.61-2.54-2.44-.89-.89-1.78-1.8-2.61-2.75-.56-.64-.54-1.46-.03-2.14.78-1.03,1.81-1.61,3.32-1.62Z"/></svg>