<svg id="Layer_1" xmlns="http://www.w3.org/2000/svg" viewBox="0 0 48 48"><path class="cls-1" d="M34.43,9.58l-1.57-.83c-2.9,5.41-5.8,10.82-8.95,16.71-3.13-6.01-5.93-11.39-8.73-16.77l-1.61.88c3.1,6.23,6.2,12.47,9.3,18.7v11.09h2.26v-11.1c3.1-6.22,6.2-12.45,9.3-18.67Z"/><path class="cls-1" d="M30.16,9.76c-.35-.27-.7-.54-1.05-.82-1.77,2.65-3.54,5.29-5.38,8.03-1.7-2.97-3.19-5.57-4.68-8.17-.45.26-.91.52-1.36.77,1.8,3.93,3.6,7.87,5.86,12.81,2.54-4.86,4.57-8.75,6.6-12.63Z"/><path class="cls-1" d="M26.68,9.04c-1.95-.13-3.23-.22-5.86-.39,1.32,2.32,2.15,3.76,3.41,5.98,1.02-2.32,1.62-3.69,2.45-5.59Z"/></svg>