<?xml version="1.0" encoding="UTF-8"?><svg id="Layer_1" xmlns="http://www.w3.org/2000/svg" viewBox="0 0 48 48"><defs><style>.cls-1{stroke-width:0px;}</style></defs><path class="cls-1" d="M28.77,26.28c-2-.05-3.99.06-5.95.49-.14.03-.31.03-.45-.01-.69-.22-1.4-.24-2.11-.21-1,.03-1.99.14-2.99.11-1.01-.03-2.04-.12-2.92-.74-.36-.25-.63-.56-.72-1-.09-.45-.19-.91-.23-1.37-.05-.61.22-.92.82-.98.97-.1,1.93-.22,2.9-.27,2.23-.11,4.47-.21,6.7-.26,1.52-.03,3.01-.2,4.46-.61,1.74-.48,3.38-.06,5,.53.3.11.58.42.74.72.23.44.36.95.51,1.43.15.5-.02.92-.4,1.26-.51.45-1.12.73-1.79.81-.57.07-1.15.1-1.72.12-.62.02-1.24,0-1.86,0Z"/></svg>